<?xml version="1.0" standalone="no"?>
<!DOCTYPE svg PUBLIC "-//W3C//DTD SVG 20010904//EN"
 "http://www.w3.org/TR/2001/REC-SVG-20010904/DTD/svg10.dtd">
<svg version="1.0" xmlns="http://www.w3.org/2000/svg"
 width="512.000000pt" height="512.000000pt" viewBox="0 0 512.000000 512.000000"
 preserveAspectRatio="xMidYMid meet">
<metadata>
Created by potrace 1.11, written by Peter Selinger 2001-2013
</metadata>
<g transform="translate(0.000000,512.000000) scale(0.100000,-0.100000)"
fill="#000000" stroke="none">
<path d="M4256 5108 c-71 -15 -120 -53 -213 -164 -24 -28 -53 -62 -65 -76 -13
-14 -39 -43 -58 -65 -19 -22 -62 -70 -95 -108 -33 -37 -66 -76 -73 -86 -6 -10
-30 -36 -52 -58 -22 -22 -40 -43 -40 -46 0 -3 -8 -13 -17 -23 -10 -10 -45 -49
-78 -86 -33 -38 -65 -74 -70 -80 -16 -17 -119 -138 -146 -170 -13 -16 -36 -40
-51 -54 -16 -14 -28 -29 -28 -33 0 -4 -21 -29 -47 -55 -54 -55 -114 -122 -188
-209 -27 -33 -61 -71 -75 -87 -14 -15 -41 -46 -60 -69 -65 -76 -79 -88 -100
-83 -11 2 -29 6 -39 8 -11 3 -28 9 -38 14 -20 11 -204 9 -221 -2 -6 -4 -30 -8
-54 -11 -49 -5 -49 -5 -183 -40 -55 -15 -104 -28 -110 -29 -5 -1 -23 -7 -40
-13 -16 -6 -73 -25 -125 -42 -97 -31 -173 -57 -200 -68 -8 -3 -17 -7 -20 -8
-12 -4 -48 -19 -87 -36 -23 -11 -49 -19 -57 -19 -9 0 -16 -4 -16 -10 0 -5 -6
-10 -14 -10 -8 0 -22 -7 -30 -16 -9 -8 -16 -13 -16 -9 0 7 -121 -58 -165 -89
-40 -29 -56 -48 -118 -141 -57 -86 -187 -341 -187 -367 0 -9 -5 -18 -11 -20
-5 -2 -11 -10 -13 -18 -4 -20 -24 -71 -36 -92 -6 -10 -10 -23 -10 -30 -1 -7
-9 -31 -20 -53 -10 -22 -16 -43 -14 -47 3 -5 0 -8 -5 -8 -6 0 -10 -3 -10 -7 1
-5 0 -10 -1 -13 -2 -5 -7 -29 -13 -52 -1 -7 -5 -17 -8 -23 -6 -9 -18 -53 -18
-65 0 -3 -8 -27 -16 -55 -19 -59 -28 -205 -15 -240 7 -19 2 -38 -29 -97 -54
-104 -66 -191 -38 -276 12 -36 11 -40 -35 -120 -26 -46 -48 -87 -48 -92 0 -4
-7 -13 -15 -20 -8 -6 -13 -15 -12 -19 2 -7 -34 -93 -43 -101 -9 -7 -24 -43
-22 -53 1 -4 -3 -7 -10 -7 -6 0 -8 -3 -5 -7 4 -3 3 -11 -2 -17 -8 -10 -17 -38
-38 -121 -3 -11 -6 -39 -7 -62 0 -24 -4 -43 -8 -43 -4 0 -6 -8 -5 -17 0 -10
-29 -64 -66 -121 -37 -57 -67 -107 -67 -112 0 -4 -4 -10 -8 -12 -8 -3 -52 -75
-76 -125 -6 -13 -14 -23 -18 -23 -5 0 -8 -7 -8 -15 0 -8 -4 -15 -10 -15 -5 0
-9 -3 -9 -7 3 -18 -2 -32 -14 -45 -6 -7 -23 -38 -37 -68 -14 -30 -29 -58 -35
-62 -5 -4 -7 -8 -3 -8 4 0 0 -17 -8 -37 -9 -20 -17 -44 -19 -52 -2 -9 -4 -20
-5 -26 -14 -64 31 -79 116 -38 33 15 60 31 62 36 2 4 12 7 23 7 10 0 19 4 19
8 0 5 35 33 77 62 92 64 90 63 125 93 15 13 39 32 54 43 14 10 31 24 38 29
150 131 188 159 199 148 4 -3 7 -2 7 3 0 5 19 9 43 10 78 1 227 38 227 56 0 4
7 8 15 8 8 0 30 14 50 31 l35 31 1 -28 c2 -80 27 -150 70 -194 42 -43 86 -59
144 -53 22 3 76 6 120 7 44 1 93 8 108 14 36 15 40 12 57 -38 17 -51 89 -128
132 -141 43 -13 158 -19 158 -8 0 5 6 9 13 9 6 0 30 9 52 20 22 11 67 29 101
40 61 22 124 70 124 96 0 7 4 14 9 14 7 0 18 26 21 52 0 4 7 25 14 45 7 21 12
46 10 55 -1 10 2 20 6 23 5 3 7 14 5 25 -2 11 1 20 7 20 6 0 9 3 5 6 -7 8 27
109 55 158 49 90 127 125 263 121 50 -2 101 -6 115 -8 72 -15 92 -21 180 -49
96 -30 114 -37 160 -56 14 -5 90 -33 170 -62 80 -28 152 -54 160 -57 8 -3 24
-8 35 -10 11 -2 27 -6 35 -10 8 -3 18 -7 23 -8 4 -2 8 -3 10 -5 1 -1 9 -3 17
-5 8 -1 35 -9 60 -16 25 -7 50 -14 55 -14 6 -1 19 -4 30 -8 22 -6 86 -18 125
-22 14 -1 33 -6 43 -10 9 -4 29 -5 42 -3 14 3 25 1 25 -4 0 -5 5 -6 11 -3 5 4
47 7 92 7 45 0 90 4 101 10 13 7 16 7 12 -1 -5 -8 1 -8 21 0 15 6 42 12 58 14
17 2 44 8 61 13 31 10 145 63 154 72 3 3 24 18 47 33 60 41 164 156 203 226 8
14 18 28 21 31 14 13 100 221 94 230 -3 5 -1 10 4 10 6 0 10 3 10 7 -1 5 0 10
1 13 4 11 20 92 25 125 1 11 6 29 11 40 9 22 10 439 1 495 -11 68 -18 95 -28
104 -5 6 -9 18 -9 28 0 10 -4 18 -10 18 -5 0 -12 16 -16 35 -3 19 -10 35 -15
35 -5 0 -16 15 -25 33 -9 17 -20 34 -23 37 -3 3 -25 31 -48 62 -75 101 -352
368 -382 368 -6 0 -11 4 -11 9 0 5 -18 22 -40 39 -22 16 -36 33 -32 37 4 5 2
5 -4 2 -6 -4 -19 2 -29 13 -10 11 -24 20 -32 20 -7 0 -13 4 -13 8 0 5 -12 15
-27 23 -28 14 -53 32 -78 57 -8 6 -17 12 -20 12 -4 0 -24 14 -45 30 -21 17
-42 30 -46 31 -5 0 -29 16 -54 34 -25 19 -74 51 -109 72 -67 40 -101 60 -153
93 -18 11 -41 23 -50 26 -10 4 -18 11 -18 17 0 6 -3 7 -7 4 -3 -4 -11 -3 -17
2 -13 11 -112 67 -146 84 -14 6 -27 14 -30 17 -3 4 -20 12 -38 19 -44 18 -46
26 -20 53 23 24 34 37 148 168 35 41 74 85 87 96 13 12 23 24 23 28 0 4 10 17
23 30 12 12 42 47 67 76 25 29 56 65 70 80 14 15 40 44 58 66 18 21 50 59 70
83 20 24 55 63 77 86 22 24 58 65 80 91 22 26 51 59 65 74 14 15 43 49 65 75
22 27 54 63 70 81 17 17 48 53 70 80 45 54 75 88 140 159 63 70 99 146 101
214 1 57 -13 121 -28 121 -5 0 -7 4 -4 9 10 15 -88 109 -140 135 -56 28 -120
37 -178 24z"/>
</g>
</svg>
